<svg width="105" height="47" viewBox="0 0 105 47" fill="none" xmlns="http://www.w3.org/2000/svg">
<path d="M22.2305 34.4492L0.941406 35.9141L0.824219 6.20703L4.86719 5.99219L4.75 31.6367L22.0352 30.2891L22.2305 34.4492ZM45.5312 24.5273C45.5312 26.168 45.2578 27.6849 44.7109 29.0781C44.1641 30.4714 43.4154 31.6823 42.4648 32.7109C41.5143 33.7396 40.401 34.5404 39.125 35.1133C37.849 35.6992 36.4883 35.9922 35.043 35.9922C33.5977 35.9922 32.2435 35.7188 30.9805 35.1719C29.7174 34.625 28.6107 33.8503 27.6602 32.8477C26.7227 31.832 25.9805 30.6211 25.4336 29.2148C24.8867 27.8086 24.6133 26.2461 24.6133 24.5273C24.6133 22.7956 24.8867 21.2266 25.4336 19.8203C25.9805 18.401 26.7227 17.1901 27.6602 16.1875C28.6107 15.1849 29.7174 14.4102 30.9805 13.8633C32.2435 13.3164 33.5977 13.043 35.043 13.043C36.4883 13.043 37.849 13.3359 39.125 13.9219C40.401 14.4948 41.5143 15.2956 42.4648 16.3242C43.4154 17.3398 44.1641 18.5508 44.7109 19.957C45.2578 21.3503 45.5312 22.8737 45.5312 24.5273ZM41.4102 24.4883C41.4102 23.5508 41.293 22.6068 41.0586 21.6562C40.8242 20.6927 40.4531 19.8333 39.9453 19.0781C39.4375 18.3099 38.7799 17.6849 37.9727 17.2031C37.1654 16.7214 36.1888 16.4805 35.043 16.4805C33.9362 16.4805 32.9857 16.7214 32.1914 17.2031C31.3971 17.6849 30.7461 18.3099 30.2383 19.0781C29.7305 19.8333 29.3594 20.6927 29.125 21.6562C28.8906 22.6068 28.7734 23.5508 28.7734 24.4883C28.7734 25.4258 28.8971 26.3698 29.1445 27.3203C29.4049 28.2708 29.7956 29.1302 30.3164 29.8984C30.8372 30.6536 31.4883 31.2721 32.2695 31.7539C33.0638 32.2357 33.9883 32.4766 35.043 32.4766C36.1497 32.4766 37.1003 32.2357 37.8945 31.7539C38.7018 31.2721 39.3659 30.6536 39.8867 29.8984C40.4076 29.1302 40.7917 28.2708 41.0391 27.3203C41.2865 26.3698 41.4102 25.4258 41.4102 24.4883ZM67.6797 14.2344C66.9896 16.2656 66.3581 18.1211 65.7852 19.8008C65.2253 21.4805 64.7174 22.9974 64.2617 24.3516C63.806 25.7057 63.3958 26.9102 63.0312 27.9648C62.6667 29.0195 62.3477 29.944 62.0742 30.7383C61.4362 32.6003 60.9349 34.0326 60.5703 35.0352C60.3099 35.8034 60.0039 36.6172 59.6523 37.4766C59.3138 38.349 58.8906 39.2148 58.3828 40.0742C57.888 40.9336 57.3021 41.7604 56.625 42.5547C55.9609 43.362 55.1797 44.0781 54.2812 44.7031C53.3958 45.3411 52.3802 45.862 51.2344 46.2656C50.0885 46.6693 48.7995 46.9036 47.3672 46.9688L46.6055 43.1602C47.4128 43.2643 48.168 43.2383 48.8711 43.082C49.5872 42.9388 50.2448 42.7044 50.8438 42.3789C51.4557 42.0664 52.0156 41.6823 52.5234 41.2266C53.0443 40.7708 53.513 40.2891 53.9297 39.7812C54.3594 39.2734 54.737 38.7526 55.0625 38.2188C55.388 37.6979 55.6745 37.2096 55.9219 36.7539L47.6797 14.8789L52.1523 14.2734L57.9141 31.4805C58.2266 30.5169 58.5911 29.3841 59.0078 28.082C59.4375 26.7669 59.8867 25.3542 60.3555 23.8438C60.8372 22.3333 61.332 20.7578 61.8398 19.1172C62.3477 17.4635 62.8424 15.8229 63.3242 14.1953L67.6797 14.2344ZM86.6055 35.2305L86.8789 32.4766C85.2904 33.4922 83.7279 34.2279 82.1914 34.6836C80.668 35.1393 79.2422 35.3672 77.9141 35.3672C76.9766 35.3672 76.0651 35.2435 75.1797 34.9961C74.3073 34.7617 73.5326 34.3971 72.8555 33.9023C72.1914 33.3945 71.651 32.7565 71.2344 31.9883C70.8307 31.207 70.6289 30.2891 70.6289 29.2344C70.6289 28.1797 70.7852 27.2357 71.0977 26.4023C71.4102 25.569 71.8398 24.8333 72.3867 24.1953C72.9336 23.5573 73.5781 23.0104 74.3203 22.5547C75.0625 22.099 75.8568 21.7279 76.7031 21.4414C77.5625 21.1549 78.4609 20.9466 79.3984 20.8164C80.3359 20.6732 81.2669 20.6016 82.1914 20.6016C83.0508 20.6016 83.8516 20.6341 84.5938 20.6992C85.3359 20.7643 85.9935 20.849 86.5664 20.9531C86.3971 20.3021 86.1888 19.6641 85.9414 19.0391C85.694 18.401 85.375 17.8346 84.9844 17.3398C84.6068 16.832 84.138 16.4219 83.5781 16.1094C83.0182 15.7969 82.3477 15.6406 81.5664 15.6406C81.0586 15.6406 80.4792 15.7188 79.8281 15.875C79.1771 16.0182 78.4609 16.2852 77.6797 16.6758C76.8984 17.0664 76.0456 17.6068 75.1211 18.2969C74.1966 18.974 73.207 19.8464 72.1523 20.9141L69.7891 18.043C71.0391 16.8711 72.237 15.9141 73.3828 15.1719C74.5286 14.4297 75.6029 13.8503 76.6055 13.4336C77.6211 13.0039 78.5586 12.7109 79.418 12.5547C80.2904 12.3984 81.0716 12.3203 81.7617 12.3203C82.9596 12.3203 84.0273 12.5286 84.9648 12.9453C85.9023 13.349 86.7227 13.9089 87.4258 14.625C88.1419 15.3281 88.7409 16.1615 89.2227 17.125C89.7174 18.0755 90.1211 19.1042 90.4336 20.2109C90.7461 21.3047 90.9674 22.444 91.0977 23.6289C91.2409 24.8138 91.3125 25.9922 91.3125 27.1641C91.3125 28.4141 91.2409 29.7552 91.0977 31.1875C90.9544 32.6198 90.7331 34.1823 90.4336 35.875L86.6055 35.2305ZM87.1523 28.1211C87.1784 27.4701 87.1979 26.8255 87.2109 26.1875C87.224 25.5495 87.1914 24.8854 87.1133 24.1953C86.4753 24 85.8047 23.8438 85.1016 23.7266C84.3984 23.6094 83.6953 23.5508 82.9922 23.5508C81.8203 23.5508 80.681 23.6875 79.5742 23.9609C78.4805 24.2344 77.5365 24.6315 76.7422 25.1523C75.9479 25.6732 75.349 26.3112 74.9453 27.0664C74.5547 27.8216 74.4766 28.681 74.7109 29.6445C74.8932 30.4258 75.2448 30.9727 75.7656 31.2852C76.2995 31.5977 76.9375 31.7539 77.6797 31.7539C78.4349 31.7539 79.2487 31.6302 80.1211 31.3828C81.0065 31.1224 81.8789 30.8099 82.7383 30.4453C83.6107 30.0677 84.431 29.6706 85.1992 29.2539C85.9674 28.8372 86.6185 28.4596 87.1523 28.1211ZM104.086 34.957C103.161 34.944 102.341 34.7878 101.625 34.4883C100.922 34.1888 100.297 33.8047 99.75 33.3359C99.2161 32.8542 98.7539 32.3073 98.3633 31.6953C97.9857 31.0833 97.6667 30.4648 97.4062 29.8398C96.7812 28.3555 96.3906 26.6758 96.2344 24.8008L96.7617 0.0351562H100.844C100.779 2.35286 100.714 4.48177 100.648 6.42188C100.596 8.34896 100.551 10.1068 100.512 11.6953C100.473 13.2708 100.434 14.6836 100.395 15.9336C100.368 17.1836 100.342 18.2839 100.316 19.2344C100.264 21.474 100.225 23.2383 100.199 24.5273C100.225 25.7383 100.401 26.819 100.727 27.7695C100.857 28.1732 101.026 28.5703 101.234 28.9609C101.456 29.3516 101.716 29.7031 102.016 30.0156C102.328 30.3281 102.693 30.582 103.109 30.7773C103.539 30.9596 104.034 31.0573 104.594 31.0703L104.086 34.957Z" fill="#E5B13E"/>
<path d="M22.2305 34.4492L22.2991 35.4469L23.2753 35.3797L23.2294 34.4023L22.2305 34.4492ZM0.941406 35.9141L-0.058586 35.918L-0.0543771 36.9849L1.01005 36.9117L0.941406 35.9141ZM0.824219 6.20703L0.771154 5.20844L-0.179529 5.25896L-0.175773 6.21098L0.824219 6.20703ZM4.86719 5.99219L5.86718 5.99676L5.87202 4.93738L4.81412 4.9936L4.86719 5.99219ZM4.75 31.6367L3.75001 31.6321L3.74505 32.7181L4.82773 32.6337L4.75 31.6367ZM22.0352 30.2891L23.0341 30.2422L22.9857 29.2119L21.9574 29.2921L22.0352 30.2891ZM22.1618 33.4516L0.872761 34.9164L1.01005 36.9117L22.2991 35.4469L22.1618 33.4516ZM1.9414 35.9101L1.82421 6.20309L-0.175773 6.21098L-0.058586 35.918L1.9414 35.9101ZM0.877284 7.20562L4.92025 6.99078L4.81412 4.9936L0.771154 5.20844L0.877284 7.20562ZM3.8672 5.98762L3.75001 31.6321L5.74999 31.6413L5.86718 5.99676L3.8672 5.98762ZM4.82773 32.6337L22.1129 31.286L21.9574 29.2921L4.67227 30.6397L4.82773 32.6337ZM21.0363 30.336L21.2316 34.4961L23.2294 34.4023L23.0341 30.2422L21.0363 30.336ZM44.7109 29.0781L43.7801 28.7127L44.7109 29.0781ZM42.4648 32.7109L41.7304 32.0323L42.4648 32.7109ZM39.125 35.1133L38.7154 34.201L38.7077 34.2045L39.125 35.1133ZM27.6602 32.8477L26.9253 33.526L26.9345 33.5357L27.6602 32.8477ZM25.4336 19.8203L26.3656 20.1828L26.3667 20.1799L25.4336 19.8203ZM27.6602 16.1875L26.9344 15.4995L26.9297 15.5045L27.6602 16.1875ZM39.125 13.9219L38.7077 14.8307L38.7154 14.8341L39.125 13.9219ZM42.4648 16.3242L41.7304 17.0029L41.7347 17.0075L42.4648 16.3242ZM44.7109 19.957L43.7789 20.3195L43.7801 20.3224L44.7109 19.957ZM41.0586 21.6562L40.0869 21.8926L40.0877 21.8957L41.0586 21.6562ZM39.9453 19.0781L39.1111 19.6296L39.1155 19.6361L39.9453 19.0781ZM30.2383 19.0781L31.0681 19.6361L31.0725 19.6296L30.2383 19.0781ZM29.125 21.6562L30.0959 21.8957L30.0967 21.8926L29.125 21.6562ZM29.1445 27.3203L28.1767 27.5722L28.1801 27.5845L29.1445 27.3203ZM30.3164 29.8984L29.4887 30.4596L29.4932 30.4662L30.3164 29.8984ZM32.2695 31.7539L31.7446 32.6051L31.7509 32.6089L32.2695 31.7539ZM37.8945 31.7539L37.3821 30.8952L37.3759 30.8989L37.8945 31.7539ZM39.8867 29.8984L40.71 30.4662L40.7144 30.4596L39.8867 29.8984ZM44.5312 24.5273C44.5312 26.055 44.2771 27.4466 43.7801 28.7127L45.6418 29.4435C46.2386 27.9232 46.5312 26.281 46.5312 24.5273H44.5312ZM43.7801 28.7127C43.2755 29.9983 42.5909 31.1011 41.7304 32.0323L43.1993 33.3896C44.2398 32.2635 45.0526 30.9445 45.6418 29.4435L43.7801 28.7127ZM41.7304 32.0323C40.8712 32.9621 39.8684 33.6834 38.7154 34.201L39.5346 36.0256C40.9337 35.3974 42.1575 34.5171 43.1993 33.3896L41.7304 32.0323ZM38.7077 34.2045C37.5665 34.7286 36.3486 34.9922 35.043 34.9922V36.9922C36.628 36.9922 38.1315 36.6699 39.5423 36.0221L38.7077 34.2045ZM35.043 34.9922C33.7274 34.9922 32.5092 34.7441 31.3778 34.2542L30.5831 36.0895C31.9778 36.6934 33.468 36.9922 35.043 36.9922V34.9922ZM31.3778 34.2542C30.2391 33.7612 29.2439 33.0647 28.3859 32.1597L26.9345 33.5357C27.9774 34.6358 29.1958 35.4888 30.5831 36.0895L31.3778 34.2542ZM28.395 32.1694C27.5499 31.2539 26.8713 30.1527 26.3656 28.8524L24.5016 29.5773C25.0897 31.0895 25.8955 32.4102 26.9254 33.5259L28.395 32.1694ZM26.3656 28.8524C25.8695 27.5766 25.6133 26.1392 25.6133 24.5273H23.6133C23.6133 26.353 23.904 28.0406 24.5016 29.5773L26.3656 28.8524ZM25.6133 24.5273C25.6133 22.9015 25.8698 21.4577 26.3656 20.1828L24.5016 19.4579C23.9036 20.9954 23.6133 22.6897 23.6133 24.5273H25.6133ZM26.3667 20.1799C26.8724 18.8675 27.5498 17.7697 28.3906 16.8705L26.9297 15.5045C25.8955 16.6105 25.0885 17.9346 24.5005 19.4608L26.3667 20.1799ZM28.3859 16.8755C29.2439 15.9704 30.2391 15.274 31.3778 14.781L30.5831 12.9456C29.1958 13.5463 27.9774 14.3993 26.9345 15.4995L28.3859 16.8755ZM31.3778 14.781C32.5092 14.2911 33.7274 14.043 35.043 14.043V12.043C33.468 12.043 31.9778 12.3417 30.5831 12.9456L31.3778 14.781ZM35.043 14.043C36.3486 14.043 37.5665 14.3066 38.7077 14.8306L39.5423 13.0131C38.1315 12.3653 36.628 12.043 35.043 12.043V14.043ZM38.7154 14.8341C39.8684 15.3518 40.8712 16.0731 41.7304 17.0029L43.1993 15.6456C42.1575 14.5181 40.9337 13.6378 39.5346 13.0096L38.7154 14.8341ZM41.7347 17.0075C42.591 17.9224 43.2743 19.022 43.7789 20.3195L45.6429 19.5946C45.0538 18.0796 44.2398 16.7572 43.195 15.6409L41.7347 17.0075ZM43.7801 20.3224C44.2767 21.5876 44.5312 22.9856 44.5312 24.5273H46.5312C46.5312 22.7618 46.2389 21.1129 45.6418 19.5916L43.7801 20.3224ZM42.4102 24.4883C42.4102 23.4666 42.2823 22.4422 42.0295 21.4168L40.0877 21.8957C40.3036 22.7713 40.4102 23.635 40.4102 24.4883H42.4102ZM42.0303 21.4199C41.7705 20.3519 41.3545 19.3818 40.7752 18.5201L39.1155 19.6361C39.5517 20.2849 39.878 21.0335 40.0869 21.8926L42.0303 21.4199ZM40.7795 18.5267C40.1871 17.6305 39.4186 16.9015 38.4851 16.3444L37.4602 18.0618C38.1413 18.4683 38.6879 18.9893 39.1111 19.6296L40.7795 18.5267ZM38.4851 16.3444C37.4922 15.7519 36.3298 15.4805 35.043 15.4805V17.4805C36.0478 17.4805 36.8385 17.6908 37.4602 18.0618L38.4851 16.3444ZM35.043 15.4805C33.7886 15.4805 32.6511 15.7547 31.6728 16.3481L32.71 18.0581C33.3203 17.688 34.0838 17.4805 35.043 17.4805V15.4805ZM31.6728 16.3481C30.7533 16.9058 29.9941 17.6341 29.4041 18.5267L31.0725 19.6296C31.4981 18.9857 32.0409 18.464 32.71 18.0581L31.6728 16.3481ZM29.4084 18.5201C28.8291 19.3818 28.4131 20.3519 28.1533 21.4199L30.0967 21.8926C30.3056 21.0335 30.6319 20.2849 31.0681 19.6361L29.4084 18.5201ZM28.1541 21.4168C27.9012 22.4422 27.7734 23.4666 27.7734 24.4883H29.7734C29.7734 23.635 29.88 22.7713 30.0959 21.8957L28.1541 21.4168ZM27.7734 24.4883C27.7734 25.5147 27.909 26.5433 28.1768 27.5722L30.1123 27.0684C29.8853 26.1962 29.7734 25.3368 29.7734 24.4883H27.7734ZM28.1801 27.5845C28.4677 28.6343 28.9026 29.5951 29.4887 30.4596L31.1441 29.3373C30.6886 28.6653 30.3422 27.9074 30.109 27.0561L28.1801 27.5845ZM29.4932 30.4662C30.0928 31.3356 30.8454 32.0506 31.7446 32.6051L32.7944 30.9027C32.1311 30.4937 31.5817 29.9717 31.1396 29.3307L29.4932 30.4662ZM31.7509 32.6089C32.7219 33.1978 33.8307 33.4766 35.043 33.4766V31.4766C34.1459 31.4766 33.4057 31.2735 32.7881 30.8989L31.7509 32.6089ZM35.043 33.4766C36.2973 33.4766 37.4349 33.2023 38.4131 32.6089L37.3759 30.8989C36.7656 31.2691 36.0021 31.4766 35.043 31.4766V33.4766ZM38.407 32.6126C39.3344 32.0592 40.1055 31.3425 40.7099 30.4662L39.0635 29.3307C38.6262 29.9648 38.0692 30.4851 37.3821 30.8952L38.407 32.6126ZM40.7144 30.4596C41.3029 29.5916 41.7324 28.6266 42.0068 27.5722L40.0713 27.0684C39.8509 27.9151 39.5122 28.6688 39.059 29.3373L40.7144 30.4596ZM42.0068 27.5722C42.2746 26.5433 42.4102 25.5147 42.4102 24.4883H40.4102C40.4102 25.3368 40.2983 26.1962 40.0713 27.0684L42.0068 27.5722ZM67.6797 14.2344L68.6265 14.5561L69.0713 13.2468L67.6887 13.2344L67.6797 14.2344ZM65.7852 19.8008L64.8387 19.478L64.8365 19.4846L65.7852 19.8008ZM62.0742 30.7383L61.1287 30.4128L61.1282 30.4141L62.0742 30.7383ZM60.5703 35.0352L59.6305 34.6934L59.6268 34.7037L59.6232 34.7141L60.5703 35.0352ZM59.6523 37.4766L58.7268 37.0979L58.7234 37.1063L58.7201 37.1148L59.6523 37.4766ZM58.3828 40.0742L57.5218 39.5655L57.5162 39.5753L58.3828 40.0742ZM56.625 42.5547L55.864 41.906L55.8583 41.9126L55.8527 41.9194L56.625 42.5547ZM54.2812 44.7031L53.7102 43.8822L53.7034 43.887L53.6966 43.8918L54.2812 44.7031ZM51.2344 46.2656L50.9021 45.3224L51.2344 46.2656ZM47.3672 46.9688L46.3866 47.1649L46.555 48.0067L47.4126 47.9677L47.3672 46.9688ZM46.6055 43.1602L46.7334 42.1684L45.3517 41.9901L45.6249 43.3563L46.6055 43.1602ZM48.8711 43.082L48.675 42.1015L48.6645 42.1035L48.6542 42.1058L48.8711 43.082ZM50.8438 42.3789L50.389 41.4883L50.3775 41.4941L50.3662 41.5003L50.8438 42.3789ZM52.5234 41.2266L51.8649 40.4739L51.8555 40.4823L52.5234 41.2266ZM53.9297 39.7812L53.1663 39.1353L53.1614 39.1411L53.1566 39.1469L53.9297 39.7812ZM55.0625 38.2188L54.2145 37.6887L54.2087 37.6981L55.0625 38.2188ZM55.9219 36.7539L56.8007 37.231L57.0189 36.8292L56.8577 36.4013L55.9219 36.7539ZM47.6797 14.8789L47.5455 13.8879L46.3011 14.0564L46.7439 15.2315L47.6797 14.8789ZM52.1523 14.2734L53.1006 13.9559L52.8379 13.1715L52.0182 13.2825L52.1523 14.2734ZM57.9141 31.4805L56.9658 31.798L57.9292 34.6752L58.8653 31.789L57.9141 31.4805ZM59.0078 28.082L58.0572 27.7715L58.0554 27.7773L59.0078 28.082ZM60.3555 23.8438L59.4027 23.5399L59.4004 23.5474L60.3555 23.8438ZM61.8398 19.1172L62.7951 19.4129L62.7958 19.4107L61.8398 19.1172ZM63.3242 14.1953L63.3332 13.1954L62.5793 13.1886L62.3653 13.9115L63.3242 14.1953ZM66.7328 13.9127C66.0428 15.9436 65.4115 17.7987 64.8387 19.478L66.7316 20.1236C67.3047 18.4435 67.9363 16.5876 68.6265 14.5561L66.7328 13.9127ZM64.8365 19.4846C64.2768 21.1635 63.7693 22.6795 63.314 24.0326L65.2095 24.6705C65.6656 23.3153 66.1737 21.7974 66.7338 20.117L64.8365 19.4846ZM63.314 24.0326C62.8589 25.3849 62.4496 26.5866 62.0861 27.6381L63.9764 28.2916C64.3421 27.2337 64.7531 26.0266 65.2095 24.6705L63.314 24.0326ZM62.0861 27.6381C61.7214 28.6931 61.4023 29.618 61.1287 30.4128L63.0198 31.0638C63.293 30.27 63.6119 29.346 63.9764 28.2916L62.0861 27.6381ZM61.1282 30.4141C60.4908 32.2742 59.9919 33.6996 59.6305 34.6934L61.5101 35.3769C61.8779 34.3655 62.3816 32.9263 63.0202 31.0624L61.1282 30.4141ZM59.6232 34.7141C59.3703 35.4604 59.0717 36.2549 58.7268 37.0979L60.5779 37.8552C60.9361 36.9795 61.2495 36.1464 61.5174 35.3562L59.6232 34.7141ZM58.7201 37.1148C58.4025 37.9331 58.0038 38.75 57.5219 39.5655L59.2437 40.5829C59.7775 39.6797 60.2251 38.7648 60.5846 37.8383L58.7201 37.1148ZM57.5162 39.5753C57.0535 40.3789 56.5034 41.1558 55.864 41.906L57.386 43.2034C58.1007 42.365 58.7225 41.4883 59.2494 40.5732L57.5162 39.5753ZM55.8527 41.9194C55.2496 42.6526 54.5369 43.3071 53.7102 43.8822L54.8523 45.524C55.8225 44.8491 56.6723 44.0713 57.3973 43.19L55.8527 41.9194ZM53.6966 43.8918C52.8968 44.4682 51.968 44.9469 50.9021 45.3224L51.5666 47.2088C52.7924 46.777 53.8949 46.2141 54.8659 45.5144L53.6966 43.8918ZM50.9021 45.3224C49.8635 45.6883 48.6734 45.9083 47.3218 45.9698L47.4126 47.9677C48.9256 47.8989 50.3136 47.6502 51.5666 47.2088L50.9021 45.3224ZM48.3478 46.7726L47.586 42.964L45.6249 43.3563L46.3866 47.1649L48.3478 46.7726ZM46.4775 44.1519C47.385 44.269 48.258 44.2427 49.088 44.0582L48.6542 42.1058C48.0779 42.2339 47.4405 42.2596 46.7334 42.1684L46.4775 44.1519ZM49.0672 44.0626C49.8747 43.9011 50.6281 43.6343 51.3213 43.2575L50.3662 41.5003C49.8615 41.7746 49.2998 41.9765 48.675 42.1015L49.0672 44.0626ZM51.2985 43.2695C51.987 42.9179 52.6187 42.4848 53.1913 41.9708L51.8555 40.4823C51.4126 40.8798 50.9244 41.2149 50.389 41.4883L51.2985 43.2695ZM53.1819 41.9791C53.742 41.4891 54.2494 40.9681 54.7028 40.4156L53.1566 39.1469C52.7766 39.61 52.3466 40.0525 51.8649 40.474L53.1819 41.9791ZM54.6931 40.4272C55.154 39.8825 55.5623 39.32 55.9163 38.7394L54.2087 37.6981C53.9117 38.1853 53.5648 38.6644 53.1663 39.1353L54.6931 40.4272ZM55.9105 38.7487C56.2449 38.2136 56.542 37.7076 56.8007 37.231L55.043 36.2768C54.8069 36.7117 54.5311 37.1822 54.2145 37.6888L55.9105 38.7487ZM56.8577 36.4013L48.6155 14.5263L46.7439 15.2315L54.9861 37.1065L56.8577 36.4013ZM47.8138 15.8699L52.2865 15.2644L52.0182 13.2825L47.5455 13.8879L47.8138 15.8699ZM51.2041 14.591L56.9658 31.798L58.8623 31.1629L53.1006 13.9559L51.2041 14.591ZM58.8653 31.789C59.1783 30.8238 59.5433 29.6897 59.9602 28.3868L58.0554 27.7773C57.639 29.0785 57.2748 30.21 56.9628 31.172L58.8653 31.789ZM59.9584 28.3926C60.3898 27.0722 60.8405 25.6546 61.3105 24.1401L59.4004 23.5474C58.9329 25.0537 58.4852 26.4617 58.0573 27.7715L59.9584 28.3926ZM61.3082 24.1476C61.7909 22.6343 62.2865 21.056 62.7951 19.4129L60.8846 18.8215C60.3775 20.4596 59.8836 22.0324 59.4028 23.5399L61.3082 24.1476ZM62.7958 19.4107C63.3046 17.7539 63.8003 16.1101 64.2831 14.4791L62.3653 13.9115C61.8846 15.5358 61.3907 17.1732 60.8839 18.8236L62.7958 19.4107ZM63.3153 15.1953L67.6707 15.2343L67.6887 13.2344L63.3332 13.1954L63.3153 15.1953ZM86.6055 35.2305L85.6104 35.1317L85.518 36.0615L86.4394 36.2166L86.6055 35.2305ZM86.8789 32.4766L87.874 32.5754L88.0778 30.5232L86.3402 31.634L86.8789 32.4766ZM82.1914 34.6836L81.907 33.7249L81.9048 33.7255L82.1914 34.6836ZM75.1797 34.9961L75.4488 34.0329L75.4391 34.0303L75.1797 34.9961ZM72.8555 33.9023L72.248 34.6967L72.2567 34.7033L72.2655 34.7097L72.8555 33.9023ZM71.2344 31.9883L70.3459 32.4473L70.3506 32.4562L70.3553 32.465L71.2344 31.9883ZM72.3867 24.1953L71.6275 23.5445L72.3867 24.1953ZM76.7031 21.4414L76.3869 20.4927L76.3825 20.4942L76.7031 21.4414ZM79.3984 20.8164L79.536 21.807L79.5495 21.8049L79.3984 20.8164ZM86.5664 20.9531L86.3875 21.937L87.9283 22.2171L87.5342 20.7015L86.5664 20.9531ZM85.9414 19.0391L85.009 19.4006L85.0116 19.4071L85.9414 19.0391ZM84.9844 17.3398L84.1819 17.9365L84.1905 17.9481L84.1995 17.9595L84.9844 17.3398ZM79.8281 15.875L80.043 16.8516L80.0523 16.8496L80.0615 16.8474L79.8281 15.875ZM75.1211 18.2969L75.712 19.1037L75.7193 19.0982L75.1211 18.2969ZM72.1523 20.9141L71.3803 21.5496L72.0848 22.4055L72.8638 21.6168L72.1523 20.9141ZM69.7891 18.043L69.1051 17.3134L68.4212 17.9546L69.017 18.6785L69.7891 18.043ZM73.3828 15.1719L72.8392 14.3326L73.3828 15.1719ZM76.6055 13.4336L76.9892 14.357L76.9951 14.3546L76.6055 13.4336ZM79.418 12.5547L79.2417 11.5703L79.2391 11.5708L79.418 12.5547ZM84.9648 12.9453L84.5587 13.8592L84.5694 13.8638L84.9648 12.9453ZM87.4258 14.625L86.7122 15.3256L86.7186 15.3321L86.7252 15.3386L87.4258 14.625ZM89.2227 17.125L88.3282 17.5722L88.3319 17.5795L88.3356 17.5867L89.2227 17.125ZM90.4336 20.2109L89.4712 20.4827L89.4721 20.4857L90.4336 20.2109ZM91.0977 23.6289L90.1036 23.7381L90.1049 23.7489L91.0977 23.6289ZM90.4336 35.875L90.2676 36.8611L91.2455 37.0258L91.4183 36.0492L90.4336 35.875ZM87.1523 28.1211L87.6879 28.9656L88.1306 28.6849L88.1515 28.1611L87.1523 28.1211ZM87.1133 24.1953L88.1069 24.0828L88.0332 23.4311L87.406 23.2391L87.1133 24.1953ZM79.5742 23.9609L79.3344 22.9901L79.3317 22.9908L79.5742 23.9609ZM74.9453 27.0664L74.0633 26.595L74.0571 26.607L74.9453 27.0664ZM74.7109 29.6445L75.6848 29.4173L75.6826 29.4082L74.7109 29.6445ZM75.7656 31.2852L75.2511 32.1427L75.2604 32.1482L75.7656 31.2852ZM80.1211 31.3828L80.3939 32.3449L80.4033 32.3422L80.1211 31.3828ZM82.7383 30.4453L83.1288 31.3659L83.1355 31.363L82.7383 30.4453ZM85.1992 29.2539L84.7225 28.3749L85.1992 29.2539ZM87.6006 35.3293L87.874 32.5754L85.8838 32.3778L85.6104 35.1317L87.6006 35.3293ZM86.3402 31.634C84.8171 32.6079 83.3395 33.3 81.907 33.7249L82.4758 35.6423C84.1162 35.1557 85.7636 34.3765 87.4176 33.3191L86.3402 31.634ZM81.9048 33.7255C80.4566 34.1588 79.1282 34.3672 77.9141 34.3672V36.3672C79.3562 36.3672 80.8793 36.1199 82.478 35.6416L81.9048 33.7255ZM77.9141 34.3672C77.0657 34.3672 76.2449 34.2554 75.4488 34.033L74.9106 35.9592C75.8853 36.2316 76.8874 36.3672 77.9141 36.3672V34.3672ZM75.4391 34.0303C74.6765 33.8255 74.0156 33.5116 73.4455 33.095L72.2655 34.7097C73.0495 35.2827 73.9381 35.698 74.9202 35.9618L75.4391 34.0303ZM73.4629 33.108C72.9158 32.6896 72.466 32.1617 72.1134 31.5115L70.3553 32.465C70.836 33.3513 71.467 34.0994 72.248 34.6967L73.4629 33.108ZM72.1228 31.5293C71.8057 30.9155 71.6289 30.1609 71.6289 29.2344H69.6289C69.6289 30.4172 69.8557 31.4985 70.3459 32.4473L72.1228 31.5293ZM71.6289 29.2344C71.6289 28.2779 71.7706 27.4559 72.034 26.7535L70.1613 26.0512C69.7997 27.0155 69.6289 28.0815 69.6289 29.2344H71.6289ZM72.034 26.7535C72.3079 26.0231 72.6796 25.3902 73.146 24.8461L71.6275 23.5445C71.0001 24.2765 70.5124 25.1149 70.1613 26.0512L72.034 26.7535ZM73.146 24.8461C73.6227 24.2899 74.1868 23.8101 74.8436 23.4069L73.797 21.7025C72.9695 22.2107 72.2445 22.8247 71.6275 23.5445L73.146 24.8461ZM74.8436 23.4069C75.5203 22.9913 76.2464 22.6517 77.0237 22.3886L76.3825 20.4942C75.4671 20.804 74.6047 21.2066 73.797 21.7025L74.8436 23.4069ZM77.0194 22.3901C77.818 22.1239 78.6565 21.9291 79.536 21.8069L79.2609 19.8259C78.2654 19.9642 77.307 20.186 76.3869 20.4927L77.0194 22.3901ZM79.5495 21.8049C80.4383 21.6691 81.3188 21.6016 82.1914 21.6016V19.6016C81.2151 19.6016 80.2336 19.6772 79.2474 19.8279L79.5495 21.8049ZM82.1914 21.6016C83.0259 21.6016 83.7972 21.6332 84.5064 21.6954L84.6811 19.703C83.9059 19.635 83.0756 19.6016 82.1914 19.6016V21.6016ZM84.5064 21.6954C85.2259 21.7585 85.8519 21.8396 86.3875 21.937L86.7453 19.9693C86.1351 19.8583 85.446 19.7701 84.6811 19.703L84.5064 21.6954ZM87.5342 20.7015C87.3547 20.0109 87.1337 19.334 86.8712 18.671L85.0116 19.4071C85.2439 19.9941 85.4396 20.5932 85.5986 21.2048L87.5342 20.7015ZM86.8738 18.6775C86.5934 17.9545 86.2267 17.2996 85.7693 16.7202L84.1995 17.9595C84.5233 18.3697 84.7946 18.8476 85.009 19.4006L86.8738 18.6775ZM85.7868 16.7431C85.3238 16.1204 84.7471 15.6166 84.0655 15.2362L83.0908 16.9826C83.529 17.2271 83.8898 17.5437 84.1819 17.9365L85.7868 16.7431ZM84.0655 15.2362C83.3273 14.8242 82.4813 14.6406 81.5664 14.6406V16.6406C82.2141 16.6406 82.7091 16.7696 83.0908 16.9826L84.0655 15.2362ZM81.5664 14.6406C80.9597 14.6406 80.2996 14.7335 79.5948 14.9026L80.0615 16.8474C80.6588 16.704 81.1575 16.6406 81.5664 16.6406V14.6406ZM79.6133 14.8984C78.8613 15.0638 78.0661 15.3645 77.2325 15.7814L78.1269 17.5702C78.8558 17.2058 79.4929 16.9727 80.043 16.8516L79.6133 14.8984ZM77.2325 15.7814C76.3845 16.2053 75.4807 16.7805 74.5229 17.4955L75.7193 19.0982C76.6104 18.433 77.4123 17.9275 78.1269 17.5702L77.2325 15.7814ZM74.5302 17.4901C73.5521 18.2065 72.5222 19.1167 71.4409 20.2113L72.8638 21.6168C73.8918 20.5761 74.8412 19.7414 75.712 19.1036L74.5302 17.4901ZM72.9244 20.2785L70.5611 17.4074L69.017 18.6785L71.3803 21.5496L72.9244 20.2785ZM70.473 18.7725C71.69 17.6315 72.8413 16.7141 73.9265 16.0112L72.8392 14.3326C71.6327 15.114 70.3881 16.1106 69.1051 17.3134L70.473 18.7725ZM73.9265 16.0112C75.0339 15.2939 76.0544 14.7455 76.9892 14.357L76.2217 12.5102C75.1513 12.955 74.0234 13.5655 72.8392 14.3326L73.9265 16.0112ZM76.9951 14.3546C77.9598 13.9464 78.8258 13.6788 79.5969 13.5386L79.2391 11.5708C78.2914 11.7431 77.2824 12.0614 76.2158 12.5126L76.9951 14.3546ZM79.5943 13.539C80.4239 13.3904 81.1446 13.3203 81.7617 13.3203V11.3203C80.9986 11.3203 80.1568 11.4065 79.2417 11.5704L79.5943 13.539ZM81.7617 13.3203C82.843 13.3203 83.7687 13.508 84.5587 13.8591L85.371 12.0315C84.286 11.5493 83.0763 11.3203 81.7617 11.3203V13.3203ZM84.5694 13.8638C85.3898 14.217 86.1016 14.7036 86.7122 15.3256L88.1393 13.9244C87.3438 13.1141 86.4149 12.4809 85.3603 12.0268L84.5694 13.8638ZM86.7252 15.3386C87.3568 15.9587 87.8923 16.7003 88.3282 17.5722L90.1171 16.6778C89.5895 15.6226 88.927 14.6975 88.1264 13.9114L86.7252 15.3386ZM88.3356 17.5867C88.7967 18.4724 89.1759 19.4369 89.4712 20.4827L91.396 19.9392C91.0662 18.7715 90.6382 17.6786 90.1097 16.6633L88.3356 17.5867ZM89.4721 20.4857C89.7684 21.5227 89.9793 22.6066 90.1036 23.7381L92.0917 23.5197C91.9556 22.2815 91.7238 21.0866 91.3951 19.9362L89.4721 20.4857ZM90.1049 23.7489C90.2434 24.8947 90.3125 26.033 90.3125 27.1641H92.3125C92.3125 25.9513 92.2384 24.7329 92.0904 23.5089L90.1049 23.7489ZM90.3125 27.1641C90.3125 28.3763 90.243 29.6839 90.1026 31.088L92.0927 31.287C92.2387 29.8265 92.3125 28.4518 92.3125 27.1641H90.3125ZM90.1026 31.088C89.9623 32.491 89.7448 34.0283 89.4489 35.7008L91.4183 36.0492C91.7214 34.3363 91.9465 32.7486 92.0927 31.287L90.1026 31.088ZM90.5996 34.8889L86.7715 34.2443L86.4394 36.2166L90.2676 36.8611L90.5996 34.8889ZM88.1515 28.1611C88.1778 27.5036 88.1976 26.8526 88.2107 26.2079L86.2111 26.1671C86.1983 26.7985 86.1789 27.4365 86.1531 28.0811L88.1515 28.1611ZM88.2107 26.2079C88.2247 25.5218 88.1896 24.8132 88.1069 24.0828L86.1196 24.3078C86.1932 24.9576 86.2232 25.5771 86.2111 26.1671L88.2107 26.2079ZM87.406 23.2391C86.7232 23.0301 86.0096 22.8641 85.266 22.7402L84.9372 24.713C85.5998 24.8234 86.2273 24.9699 86.8206 25.1515L87.406 23.2391ZM85.266 22.7402C84.5093 22.6141 83.7511 22.5508 82.9922 22.5508V24.5508C83.6395 24.5508 84.2876 24.6047 84.9372 24.713L85.266 22.7402ZM82.9922 22.5508C81.7417 22.5508 80.5218 22.6968 79.3344 22.9901L79.8141 24.9317C80.8402 24.6782 81.8989 24.5508 82.9922 24.5508V22.5508ZM79.3317 22.9908C78.149 23.2865 77.0975 23.7235 76.1938 24.3161L77.2905 25.9886C77.9754 25.5395 78.8119 25.1823 79.8168 24.9311L79.3317 22.9908ZM76.1938 24.3161C75.2752 24.9185 74.5543 25.6766 74.0634 26.595L75.8272 27.5378C76.1436 26.9458 76.6207 26.4279 77.2905 25.9886L76.1938 24.3161ZM74.0571 26.607C73.5376 27.6114 73.4579 28.7242 73.7393 29.8809L75.6826 29.4082C75.4952 28.6378 75.5718 28.0319 75.8335 27.5258L74.0571 26.607ZM73.7371 29.8718C73.9603 30.8285 74.4307 31.6504 75.2511 32.1426L76.2801 30.4277C76.0589 30.295 75.8261 30.023 75.6848 29.4173L73.7371 29.8718ZM75.2604 32.1482C75.9756 32.5668 76.7955 32.7539 77.6797 32.7539V30.7539C77.0795 30.7539 76.6234 30.6285 76.2708 30.4221L75.2604 32.1482ZM77.6797 32.7539C78.5434 32.7539 79.4499 32.6126 80.3939 32.3449L79.8483 30.4207C79.0475 30.6478 78.3263 30.7539 77.6797 30.7539V32.7539ZM80.4033 32.3422C81.3259 32.0708 82.2345 31.7453 83.1288 31.3659L82.3477 29.5247C81.5233 29.8745 80.6871 30.174 79.8389 30.4234L80.4033 32.3422ZM83.1355 31.363C84.0326 30.9747 84.8797 30.5648 85.676 30.1329L84.7225 28.3749C83.9823 28.7763 83.1887 29.1607 82.3411 29.5276L83.1355 31.363ZM85.676 30.1329C86.4573 29.7092 87.1292 29.3199 87.6879 28.9656L86.6168 27.2766C86.1078 27.5994 85.4776 27.9653 84.7225 28.3749L85.676 30.1329ZM104.086 34.957L104.072 35.9569L104.962 35.9695L105.078 35.0866L104.086 34.957ZM101.625 34.4883L101.233 35.4083L101.239 35.4109L101.625 34.4883ZM99.75 33.3359L99.08 34.0783L99.0895 34.0869L99.0992 34.0952L99.75 33.3359ZM98.3633 31.6953L97.5122 32.2204L97.5163 32.2269L97.5204 32.2333L98.3633 31.6953ZM97.4062 29.8398L98.3293 29.4552L98.3279 29.4518L97.4062 29.8398ZM96.2344 24.8008L95.2346 24.7795L95.2335 24.8317L95.2378 24.8838L96.2344 24.8008ZM96.7617 0.0351562V-0.964844H95.7828L95.7619 0.0138677L96.7617 0.0351562ZM100.844 0.0351562L101.843 0.0632351L101.872 -0.964844H100.844V0.0351562ZM100.648 6.42188L99.649 6.38834L99.6488 6.39486L100.648 6.42188ZM100.512 11.6953L101.511 11.7201L101.511 11.7199L100.512 11.6953ZM100.395 15.9336L99.395 15.9024L99.3947 15.9128L100.395 15.9336ZM100.316 19.2344L99.3168 19.207L99.3167 19.2111L100.316 19.2344ZM100.199 24.5273L99.1994 24.5071L99.199 24.528L99.1994 24.5488L100.199 24.5273ZM100.727 27.7695L101.678 27.4625L101.676 27.454L101.673 27.4455L100.727 27.7695ZM101.234 28.9609L100.352 29.4315L100.358 29.4428L100.364 29.454L101.234 28.9609ZM102.016 30.0156L101.294 30.7075L101.301 30.7152L101.309 30.7227L102.016 30.0156ZM103.109 30.7773L102.685 31.6828L102.702 31.6907L102.719 31.6979L103.109 30.7773ZM104.594 31.0703L105.585 31.1999L105.729 30.0965L104.617 30.0706L104.594 31.0703ZM104.1 33.9571C103.279 33.9456 102.589 33.8075 102.011 33.5657L101.239 35.4109C102.093 35.7681 103.044 35.9424 104.072 35.9569L104.1 33.9571ZM102.017 33.5683C101.402 33.3064 100.865 32.975 100.401 32.5767L99.0992 34.0952C99.7283 34.6344 100.442 35.0712 101.233 35.4083L102.017 33.5683ZM100.42 32.5935C99.9533 32.1724 99.5491 31.6944 99.2062 31.1573L97.5204 32.2333C97.9587 32.9202 98.479 33.5359 99.08 34.0783L100.42 32.5935ZM99.2143 31.1702C98.8627 30.6003 98.5683 30.0287 98.3293 29.4552L96.4832 30.2245C96.7651 30.901 97.1087 31.5663 97.5122 32.2204L99.2143 31.1702ZM98.3279 29.4518C97.75 28.0793 97.3799 26.505 97.2309 24.7177L95.2378 24.8838C95.4014 26.8466 95.8125 28.6317 96.4846 30.2279L98.3279 29.4518ZM97.2341 24.8221L97.7615 0.0564448L95.7619 0.0138677L95.2346 24.7795L97.2341 24.8221ZM96.7617 1.03516H100.844V-0.964844H96.7617V1.03516ZM99.8441 0.00707744C99.7791 2.3233 99.714 4.45036 99.649 6.38834L101.648 6.45541C101.713 4.51318 101.778 2.38243 101.843 0.0632351L99.8441 0.00707744ZM99.6488 6.39486C99.5967 8.32259 99.5511 10.0812 99.512 11.6707L101.511 11.7199C101.55 10.1323 101.596 8.37533 101.648 6.44889L99.6488 6.39486ZM99.512 11.6705C99.473 13.2444 99.434 14.655 99.395 15.9024L101.394 15.9648C101.433 14.7122 101.472 13.2972 101.511 11.7201L99.512 11.6705ZM99.3947 15.9128C99.3687 17.1612 99.3427 18.2592 99.3168 19.207L101.316 19.2618C101.342 18.3085 101.368 17.206 101.394 15.9544L99.3947 15.9128ZM99.3167 19.2111C99.2646 21.4511 99.2255 23.2166 99.1994 24.5071L101.199 24.5475C101.225 23.26 101.264 21.4968 101.316 19.2576L99.3167 19.2111ZM99.1994 24.5488C99.2273 25.8423 99.4156 27.0279 99.7805 28.0935L101.673 27.4455C101.387 26.6101 101.223 25.6342 101.199 24.5058L99.1994 24.5488ZM99.7749 28.0765C99.9241 28.5391 100.117 28.9908 100.352 29.4315L102.117 28.4903C101.935 28.1498 101.789 27.8073 101.678 27.4625L99.7749 28.0765ZM100.364 29.454C100.625 29.9141 100.935 30.3329 101.294 30.7075L102.738 29.3237C102.498 29.0733 102.286 28.7891 102.104 28.4679L100.364 29.454ZM101.309 30.7227C101.706 31.1206 102.168 31.4403 102.685 31.6828L103.534 29.8719C103.218 29.7237 102.95 29.5357 102.723 29.3085L101.309 30.7227ZM102.719 31.6979C103.286 31.9384 103.909 32.0547 104.571 32.07L104.617 30.0706C104.159 30.0599 103.793 29.9809 103.5 29.8568L102.719 31.6979ZM103.602 30.9408L103.094 34.8275L105.078 35.0866L105.585 31.1999L103.602 30.9408Z" fill="black"/>
</svg>
